<svg width="329" height="16" viewBox="0 0 329 16" fill="none" xmlns="http://www.w3.org/2000/svg">
<path d="M5.21142 6.926L4.52942 9.126H8.84142L8.15942 6.926C7.91009 6.11933 7.66076 5.32 7.41142 4.528C7.17676 3.72133 6.94942 2.9 6.72942 2.064H6.64142C6.40676 2.9 6.17209 3.72133 5.93742 4.528C5.70276 5.32 5.46076 6.11933 5.21142 6.926ZM0.811422 15L5.67342 0.568H7.74142L12.6034 15H10.6674L9.30342 10.6H4.06742L2.68142 15H0.811422ZM15.1028 15V0.568H17.1268L21.7468 9.632L23.1328 12.624H23.1768C23.1475 11.9053 23.0962 11.1573 23.0228 10.38C22.9642 9.588 22.9348 8.81067 22.9348 8.048V0.568H24.6948V15H22.6708L18.0508 5.936L16.6648 2.944H16.6208C16.6502 3.692 16.6942 4.44733 16.7528 5.21C16.8262 5.958 16.8628 6.706 16.8628 7.454V15H15.1028ZM28.4042 15V0.568H31.9682C34.1536 0.568 35.8109 1.184 36.9402 2.416C38.0842 3.648 38.6562 5.41533 38.6562 7.718C38.6562 10.0207 38.0842 11.81 36.9402 13.086C35.8109 14.362 34.1829 15 32.0562 15H28.4042ZM30.2302 13.504H31.8362C33.4936 13.504 34.7256 12.998 35.5322 11.986C36.3536 10.974 36.7642 9.55133 36.7642 7.718C36.7642 5.88467 36.3536 4.484 35.5322 3.516C34.7256 2.548 33.4936 2.064 31.8362 2.064H30.2302V13.504ZM41.8816 15V0.568H46.3696C47.103 0.568 47.7776 0.641333 48.3936 0.787999C49.0096 0.919999 49.5376 1.14733 49.9776 1.47C50.4323 1.79267 50.7843 2.21067 51.0336 2.724C51.283 3.23733 51.4076 3.868 51.4076 4.616C51.4076 5.74533 51.1143 6.64733 50.5276 7.322C49.941 7.99667 49.1563 8.45867 48.1736 8.708L51.8476 15H49.7576L46.2816 8.906H43.7076V15H41.8816ZM43.7076 7.41H46.1056C47.235 7.41 48.093 7.18267 48.6796 6.728C49.281 6.25867 49.5816 5.55467 49.5816 4.616C49.5816 3.66267 49.281 2.99533 48.6796 2.614C48.093 2.23267 47.235 2.042 46.1056 2.042H43.7076V7.41ZM59.473 15.264C58.6517 15.264 57.9037 15.0953 57.229 14.758C56.5544 14.406 55.9677 13.9073 55.469 13.262C54.985 12.6167 54.6037 11.832 54.325 10.908C54.061 9.96933 53.929 8.906 53.929 7.718C53.929 6.55933 54.061 5.518 54.325 4.594C54.6037 3.67 54.985 2.89267 55.469 2.262C55.9677 1.63133 56.5544 1.14733 57.229 0.809999C57.9037 0.472666 58.6517 0.303999 59.473 0.303999C60.2797 0.303999 61.0204 0.472666 61.695 0.809999C62.3844 1.14733 62.971 1.63133 63.455 2.262C63.9537 2.89267 64.335 3.67 64.599 4.594C64.8777 5.518 65.017 6.55933 65.017 7.718C65.017 8.906 64.8777 9.96933 64.599 10.908C64.335 11.832 63.9537 12.6167 63.455 13.262C62.971 13.9073 62.3844 14.406 61.695 14.758C61.0204 15.0953 60.2797 15.264 59.473 15.264ZM59.473 13.658C60.0157 13.658 60.5144 13.526 60.969 13.262C61.4237 12.9833 61.805 12.5873 62.113 12.074C62.4357 11.5607 62.685 10.9373 62.861 10.204C63.037 9.47067 63.125 8.642 63.125 7.718C63.125 6.80867 63.037 5.99467 62.861 5.276C62.685 4.55733 62.4357 3.94867 62.113 3.45C61.805 2.95133 61.4237 2.57 60.969 2.306C60.5144 2.042 60.0157 1.91 59.473 1.91C58.9157 1.91 58.4097 2.042 57.955 2.306C57.515 2.57 57.1337 2.95133 56.811 3.45C56.503 3.94867 56.261 4.55733 56.085 5.276C55.909 5.99467 55.821 6.80867 55.821 7.718C55.821 8.642 55.909 9.47067 56.085 10.204C56.261 10.9373 56.503 11.5607 56.811 12.074C57.1337 12.5873 57.515 12.9833 57.955 13.262C58.4097 13.526 58.9157 13.658 59.473 13.658ZM68.1545 15V13.438H71.7405V2.108H68.1545V0.568H77.1745V2.108H73.5885V13.438H77.1745V15H68.1545ZM81.1699 15V0.568H84.7339C86.9192 0.568 88.5765 1.184 89.7059 2.416C90.8499 3.648 91.4219 5.41533 91.4219 7.718C91.4219 10.0207 90.8499 11.81 89.7059 13.086C88.5765 14.362 86.9485 15 84.8219 15H81.1699ZM82.9959 13.504H84.6019C86.2592 13.504 87.4912 12.998 88.2979 11.986C89.1192 10.974 89.5299 9.55133 89.5299 7.718C89.5299 5.88467 89.1192 4.484 88.2979 3.516C87.4912 2.548 86.2592 2.064 84.6019 2.064H82.9959V13.504ZM112.349 15.264C111.293 15.264 110.317 15.0733 109.423 14.692C108.543 14.3107 107.773 13.79 107.113 13.13L108.213 11.854C108.755 12.3967 109.386 12.8367 110.105 13.174C110.823 13.4967 111.601 13.658 112.437 13.658C113.434 13.658 114.204 13.4453 114.747 13.02C115.304 12.5947 115.583 12.0447 115.583 11.37C115.583 10.9887 115.517 10.666 115.385 10.402C115.253 10.138 115.069 9.91067 114.835 9.72C114.6 9.52933 114.321 9.36067 113.999 9.214C113.691 9.06733 113.353 8.91333 112.987 8.752L110.919 7.85C110.552 7.70333 110.185 7.52733 109.819 7.322C109.452 7.11667 109.115 6.86733 108.807 6.574C108.513 6.28067 108.271 5.936 108.081 5.54C107.89 5.12933 107.795 4.66 107.795 4.132C107.795 3.58933 107.912 3.08333 108.147 2.614C108.381 2.14467 108.704 1.74133 109.115 1.404C109.54 1.052 110.039 0.780666 110.611 0.589999C111.197 0.399332 111.835 0.303999 112.525 0.303999C113.434 0.303999 114.27 0.472666 115.033 0.809999C115.795 1.13267 116.441 1.558 116.969 2.086L116.001 3.274C115.531 2.84867 115.011 2.51867 114.439 2.284C113.867 2.03467 113.207 1.91 112.459 1.91C111.623 1.91 110.948 2.10067 110.435 2.482C109.921 2.84867 109.665 3.362 109.665 4.022C109.665 4.374 109.738 4.67467 109.885 4.924C110.046 5.15867 110.244 5.37133 110.479 5.562C110.728 5.738 111.007 5.892 111.315 6.024C111.623 6.156 111.931 6.288 112.239 6.42L114.263 7.3C114.703 7.476 115.113 7.68133 115.495 7.916C115.891 8.136 116.228 8.4 116.507 8.708C116.8 9.00133 117.027 9.35333 117.189 9.764C117.365 10.16 117.453 10.622 117.453 11.15C117.453 11.722 117.335 12.2573 117.101 12.756C116.866 13.2547 116.529 13.6947 116.089 14.076C115.649 14.4427 115.113 14.736 114.483 14.956C113.852 15.1613 113.141 15.264 112.349 15.264ZM124.506 15V2.108H119.754V0.568H131.106V2.108H126.354V15H124.506ZM138.643 15.264C137.939 15.264 137.287 15.1613 136.685 14.956C136.084 14.7507 135.563 14.4207 135.123 13.966C134.698 13.4967 134.361 12.9027 134.111 12.184C133.877 11.4653 133.759 10.5853 133.759 9.544V0.568H135.607V9.588C135.607 10.336 135.681 10.974 135.827 11.502C135.989 12.0153 136.201 12.4333 136.465 12.756C136.744 13.064 137.067 13.2913 137.433 13.438C137.8 13.5847 138.203 13.658 138.643 13.658C139.083 13.658 139.487 13.5847 139.853 13.438C140.22 13.2913 140.543 13.064 140.821 12.756C141.1 12.4333 141.313 12.0153 141.459 11.502C141.621 10.974 141.701 10.336 141.701 9.588V0.568H143.483V9.544C143.483 10.5853 143.359 11.4653 143.109 12.184C142.875 12.9027 142.545 13.4967 142.119 13.966C141.694 14.4207 141.181 14.7507 140.579 14.956C139.993 15.1613 139.347 15.264 138.643 15.264ZM147.127 15V0.568H150.691C152.876 0.568 154.534 1.184 155.663 2.416C156.807 3.648 157.379 5.41533 157.379 7.718C157.379 10.0207 156.807 11.81 155.663 13.086C154.534 14.362 152.906 15 150.779 15H147.127ZM148.953 13.504H150.559C152.216 13.504 153.448 12.998 154.255 11.986C155.076 10.974 155.487 9.55133 155.487 7.718C155.487 5.88467 155.076 4.484 154.255 3.516C153.448 2.548 152.216 2.064 150.559 2.064H148.953V13.504ZM164.08 15V9.852L159.24 0.568H161.176L163.354 4.858C163.633 5.41533 163.904 5.97267 164.168 6.53C164.432 7.07267 164.711 7.63733 165.004 8.224H165.092C165.386 7.63733 165.672 7.06533 165.95 6.508C166.229 5.95067 166.508 5.39333 166.786 4.836L168.876 0.568H170.768L165.928 9.852V15H164.08ZM190.859 15.264C190.052 15.264 189.26 15.0733 188.483 14.692C187.706 14.3107 187.068 13.702 186.569 12.866L187.713 11.744C188.124 12.404 188.6 12.888 189.143 13.196C189.7 13.504 190.258 13.658 190.815 13.658C191.856 13.658 192.612 13.3867 193.081 12.844C193.565 12.2867 193.807 11.414 193.807 10.226V2.086H187.757V0.546H195.633V10.38C195.633 11.0547 195.552 11.6927 195.391 12.294C195.23 12.8807 194.958 13.394 194.577 13.834C194.21 14.274 193.719 14.626 193.103 14.89C192.502 15.1393 191.754 15.264 190.859 15.264ZM203.083 6.926L202.401 9.126H206.713L206.031 6.926C205.781 6.11933 205.532 5.32 205.283 4.528C205.048 3.72133 204.821 2.9 204.601 2.064H204.513C204.278 2.9 204.043 3.72133 203.809 4.528C203.574 5.32 203.332 6.11933 203.083 6.926ZM198.683 15L203.545 0.568H205.613L210.475 15H208.539L207.175 10.6H201.939L200.553 15H198.683ZM212.754 15V0.568H214.998L217.022 6.728L217.726 9.06H217.814L218.496 6.728L220.542 0.568H222.786V15H221.026V7.784C221.026 7.432 221.033 7.02867 221.048 6.574C221.077 6.10467 221.107 5.63533 221.136 5.166C221.18 4.69667 221.217 4.242 221.246 3.802C221.275 3.362 221.305 2.988 221.334 2.68H221.268L220.454 5.496L218.386 11.172H217.066L215.042 5.496L214.206 2.68H214.162C214.191 2.988 214.221 3.362 214.25 3.802C214.294 4.242 214.331 4.69667 214.36 5.166C214.389 5.63533 214.411 6.10467 214.426 6.574C214.455 7.02867 214.47 7.432 214.47 7.784V15H212.754Z" fill="#3DDB83"/>
<path d="M238.741 15L243.053 7.542L239.027 0.568H241.051L243.075 4.264C243.265 4.60133 243.449 4.93133 243.625 5.254C243.801 5.562 244.006 5.92867 244.241 6.354H244.329C244.534 5.92867 244.71 5.562 244.857 5.254C245.018 4.93133 245.187 4.60133 245.363 4.264L247.343 0.568H249.279L245.253 7.63L249.565 15H247.541L245.363 11.106C245.157 10.754 244.952 10.3947 244.747 10.028C244.556 9.64667 244.336 9.236 244.087 8.796H243.999C243.793 9.236 243.595 9.64667 243.405 10.028C243.214 10.3947 243.023 10.754 242.833 11.106L240.677 15H238.741ZM256.42 15V2.108H251.668V0.568H263.02V2.108H258.268V15H256.42ZM266.444 15V0.568H275.376V2.108H268.292V6.64H274.276V8.202H268.292V13.438H275.596V15H266.444ZM278.931 15V0.568H280.955L285.575 9.632L286.961 12.624H287.005C286.976 11.9053 286.924 11.1573 286.851 10.38C286.792 9.588 286.763 8.81067 286.763 8.048V0.568H288.523V15H286.499L281.879 5.936L280.493 2.944H280.449C280.478 3.692 280.522 4.44733 280.581 5.21C280.654 5.958 280.691 6.706 280.691 7.454V15H278.931ZM292.232 15V0.568H295.796C297.982 0.568 299.639 1.184 300.768 2.416C301.912 3.648 302.484 5.41533 302.484 7.718C302.484 10.0207 301.912 11.81 300.768 13.086C299.639 14.362 298.011 15 295.884 15H292.232ZM294.058 13.504H295.664C297.322 13.504 298.554 12.998 299.36 11.986C300.182 10.974 300.592 9.55133 300.592 7.718C300.592 5.88467 300.182 4.484 299.36 3.516C298.554 2.548 297.322 2.064 295.664 2.064H294.058V13.504ZM306.018 15V0.568H314.95V2.108H307.866V6.64H313.85V8.202H307.866V13.438H315.17V15H306.018ZM318.615 15V0.568H322.179C324.365 0.568 326.022 1.184 327.151 2.416C328.295 3.648 328.867 5.41533 328.867 7.718C328.867 10.0207 328.295 11.81 327.151 13.086C326.022 14.362 324.394 15 322.267 15H318.615ZM320.441 13.504H322.047C323.705 13.504 324.937 12.998 325.743 11.986C326.565 10.974 326.975 9.55133 326.975 7.718C326.975 5.88467 326.565 4.484 325.743 3.516C324.937 2.548 323.705 2.064 322.047 2.064H320.441V13.504Z" fill="#4384F2"/>
</svg>
