<svg width="308" height="94" viewBox="0 0 308 94" fill="none" xmlns="http://www.w3.org/2000/svg">
<path d="M66.9629 83H6.61087L36.7869 17.588L66.9629 83ZM11.9469 79.596H61.6269L36.7869 25.684L11.9469 79.596ZM103.048 84.656C94.1551 84.656 87.2858 82.5707 82.4404 78.4C77.6564 74.168 75.2951 67.8507 75.3564 59.448H90.3524C90.2911 62.944 91.3338 65.612 93.4804 67.452C95.6271 69.292 98.6324 70.212 102.496 70.212C105.686 70.212 108.2 69.6907 110.04 68.648C111.88 67.6053 112.8 66.0107 112.8 63.864C112.8 62.0853 111.85 60.7973 109.948 60C108.108 59.2027 106.268 58.6507 104.428 58.344C102.588 57.976 101.454 57.7613 101.024 57.7C96.3018 56.78 92.2231 55.676 88.7884 54.388C85.3538 53.0387 82.4711 51.0147 80.1404 48.316C77.8098 45.6173 76.6444 42.06 76.6444 37.644C76.6444 33.228 77.8098 29.4867 80.1404 26.42C82.4711 23.292 85.5684 20.9613 89.4324 19.428C93.3578 17.8947 97.6204 17.128 102.22 17.128C107.802 17.128 112.616 18.1707 116.664 20.256C120.774 22.3413 123.994 25.5 126.324 29.732C127.49 31.756 128.195 33.7187 128.44 35.62C128.686 37.46 128.808 39.2693 128.808 41.048H113.812C113.812 37.736 112.923 35.3133 111.144 33.78C109.366 32.1853 106.606 31.388 102.864 31.388C99.8591 31.388 97.5284 31.9093 95.8724 32.952C94.2164 33.9947 93.3884 35.4053 93.3884 37.184C93.3884 39.1467 94.4924 40.588 96.7004 41.508C98.9084 42.428 101.699 43.256 105.072 43.992C110.592 45.096 114.886 46.1693 117.952 47.212C121.08 48.1933 123.779 49.972 126.048 52.548C128.318 55.124 129.452 58.7427 129.452 63.404C129.452 67.82 128.226 71.6227 125.772 74.812C123.319 78.0013 120.068 80.4547 116.02 82.172C112.034 83.828 107.71 84.656 103.048 84.656ZM176.67 35.16H158.638V18.968H193.414V56.964C193.414 62.668 192.279 67.6053 190.01 71.776C187.741 75.8853 184.613 79.0133 180.626 81.16C176.701 83.3067 172.315 84.38 167.47 84.38C162.809 84.38 158.485 83.2147 154.498 80.884C150.573 78.5533 147.445 75.4253 145.114 71.5C142.783 67.5133 141.618 63.1893 141.618 58.528H158.362C158.362 61.3493 159.159 63.7107 160.754 65.612C162.41 67.5133 164.618 68.464 167.378 68.464C170.322 68.464 172.591 67.544 174.186 65.704C175.842 63.8027 176.67 61.0427 176.67 57.424V35.16ZM218.368 52.916V49.512H250.016V52.916H218.368Z" fill="#3DDB83"/>
<path d="M255.206 80.8136L277.5 52.4883L299.794 80.8136H255.206Z" stroke="#3DDB83" stroke-width="4"/>
<path d="M299.749 19.9901L277.5 47.7617L255.251 19.9901H299.749Z" stroke="#3DDB83" stroke-width="4"/>
<path d="M291.339 30.5L277.5 47.7984L263.661 30.5H291.339Z" fill="#4384F2" stroke="#4384F2" stroke-width="4"/>
<path d="M290.911 69.5L277.5 52.2576L264.089 69.5H290.911Z" fill="#4384F2" stroke="#4384F2" stroke-width="4"/>
</svg>
