<svg width="320" height="44" viewBox="0 0 320 44" fill="none" xmlns="http://www.w3.org/2000/svg">
<path d="M58.2963 30.6506H59.931V30.7034L56.277 34.754L60.1782 40.0448V40.0975H58.626L55.4255 35.6907L53.9147 37.3664V40.0976H52.6509V30.6506H53.9147V35.5192H53.9695L58.2963 30.6506Z" fill="#0E2E49"/>
<path d="M63.3376 33.4217C64.2714 33.4217 65.0086 33.6614 65.5489 34.1408C66.0893 34.6202 66.3594 35.2778 66.3593 36.1134V40.0979H65.1506V39.2007H65.0957C64.5736 39.9396 63.8776 40.309 63.0079 40.309C62.2662 40.309 61.6457 40.0979 61.1462 39.6756C60.9067 39.4818 60.7152 39.2391 60.5857 38.9652C60.4563 38.6913 60.392 38.393 60.3977 38.0923C60.3867 37.7849 60.4527 37.4794 60.5902 37.2016C60.7276 36.9238 60.9324 36.6817 61.1874 36.4957C61.714 36.1 62.4168 35.9021 63.2959 35.9021C64.0466 35.9021 64.6647 36.034 65.1501 36.2979V36.0208C65.1517 35.8156 65.1056 35.6126 65.0153 35.4266C64.925 35.2406 64.7926 35.0763 64.6279 34.9455C64.2929 34.6556 63.8563 34.4977 63.4054 34.5035C63.0729 34.4962 62.7441 34.5713 62.4506 34.7215C62.1571 34.8717 61.9087 35.092 61.7296 35.3611L60.6171 34.6882C61.231 33.8439 62.1378 33.4217 63.3376 33.4217ZM61.7029 38.1188C61.702 38.2732 61.7395 38.4257 61.8124 38.5634C61.8853 38.7011 61.9914 38.8201 62.1219 38.9104C62.4014 39.1215 62.7484 39.2332 63.1039 39.2266C63.6373 39.2259 64.1485 39.022 64.5255 38.6596C64.722 38.4927 64.8793 38.2875 64.9869 38.0577C65.0945 37.828 65.1501 37.5789 65.1499 37.3269C64.7564 37.0281 64.2069 36.8786 63.5016 36.8784C63.0449 36.8624 62.5948 36.9873 62.2174 37.2348C61.8745 37.4722 61.7029 37.7669 61.7028 38.1188H61.7029Z" fill="#0E2E49"/>
<path d="M68.9967 30.6506V40.0976H67.7328V30.6506H68.9967Z" fill="#0E2E49"/>
<path d="M72.1143 31.4032C72.1139 31.6011 72.0421 31.7928 71.9111 31.9456C71.7801 32.0984 71.598 32.2029 71.3959 32.2412C71.1937 32.2796 70.984 32.2494 70.8023 32.1559C70.6207 32.0624 70.4784 31.9114 70.3998 31.7284C70.3211 31.5455 70.3108 31.342 70.3707 31.1527C70.4307 30.9633 70.5571 30.7997 70.7285 30.6898C70.8998 30.5799 71.1056 30.5304 71.3106 30.5498C71.5157 30.5693 71.7074 30.6563 71.8532 30.7963C71.9375 30.875 72.0042 30.9694 72.0491 31.0738C72.094 31.1782 72.1162 31.2903 72.1143 31.4032ZM71.8532 33.633V40.098H70.5897V33.633H71.8532Z" fill="#0E2E49"/>
<path d="M73.4468 33.6327H74.6554V34.5299H74.7104C74.9246 34.1932 75.2309 33.9194 75.5958 33.7383C75.975 33.5321 76.4031 33.4232 76.8389 33.4221C77.663 33.4221 78.2972 33.6485 78.7413 34.1015C79.1855 34.5545 79.4075 35.1988 79.4075 36.0345V40.0982H78.1443V36.1132C78.1169 35.0576 77.5628 34.5298 76.4822 34.5298C76.2387 34.5275 75.9979 34.5793 75.7787 34.6811C75.5595 34.783 75.3678 34.9321 75.2185 35.1169C74.8785 35.5113 74.6981 36.0102 74.7103 36.5221V40.0977H73.4468V33.6327Z" fill="#0E2E49"/>
<path d="M83.7485 43.1588C83.3909 43.1611 83.0347 43.1145 82.6908 43.0202C82.3729 42.9329 82.0698 42.8018 81.7911 42.631C81.5282 42.4701 81.294 42.2696 81.0975 42.0373C80.9054 41.8089 80.7566 41.5499 80.6579 41.272L81.853 40.7972C81.9833 41.1663 82.2337 41.4855 82.5672 41.7076C82.9136 41.9385 83.327 42.0585 83.7485 42.0506C84.4353 42.0506 84.971 41.8527 85.3556 41.4569C85.7402 41.0611 85.9325 40.5158 85.9325 39.8213V39.2011H85.877C85.6337 39.5484 85.2998 39.8281 84.9087 40.0125C84.4979 40.211 84.0437 40.3126 83.5839 40.309C82.7048 40.309 81.9493 39.9791 81.3175 39.3194C80.6952 38.6438 80.3615 37.7673 80.3833 36.8654C80.3833 35.9067 80.6947 35.0931 81.3175 34.4245C81.9493 33.7562 82.7047 33.4218 83.5839 33.4213C84.0439 33.4178 84.4982 33.5196 84.9091 33.7183C85.3003 33.9027 85.6342 34.1825 85.8775 34.5297H85.9324V33.6325H87.1411V39.8204C87.1411 40.8582 86.8343 41.6718 86.2209 42.2614C85.5981 42.8596 84.774 43.1587 83.7485 43.1588ZM83.7897 39.2006C84.0779 39.2088 84.3644 39.1549 84.6282 39.0431C84.892 38.9312 85.1265 38.7642 85.3144 38.5541C85.7265 38.1232 85.9325 37.5603 85.9325 36.8653C85.9325 36.188 85.7265 35.6295 85.3144 35.1896C85.1274 34.9776 84.8934 34.8084 84.6297 34.6943C84.3659 34.5802 84.0789 34.524 83.7897 34.5299C83.5007 34.5258 83.2144 34.5827 82.9508 34.6967C82.6873 34.8107 82.4532 34.979 82.2649 35.1896C81.8528 35.6296 81.6468 36.1882 81.6468 36.8653C81.6468 37.5513 81.8528 38.1099 82.2649 38.5409C82.4531 38.7516 82.6873 38.9199 82.9508 39.0339C83.2143 39.148 83.5007 39.2049 83.7897 39.2007V39.2006Z" fill="#0E2E49"/>
<path d="M91.1109 33.4217C92.0448 33.4217 92.782 33.6614 93.3222 34.1408C93.8625 34.6202 94.1327 35.2778 94.1328 36.1134V40.0979H92.924V39.2007H92.8691C92.3469 39.9396 91.6509 40.309 90.7812 40.309C90.0396 40.309 89.419 40.0979 88.9195 39.6756C88.68 39.4818 88.4885 39.2391 88.359 38.9652C88.2295 38.6913 88.1652 38.3931 88.1708 38.0923C88.1599 37.7848 88.2259 37.4794 88.3634 37.2016C88.5008 36.9238 88.7057 36.6817 88.9607 36.4957C89.4872 36.1 90.19 35.9021 91.0691 35.9021C91.8198 35.9021 92.438 36.034 92.9234 36.2979V36.0208C92.925 35.8156 92.8789 35.6126 92.7886 35.4266C92.6983 35.2406 92.5659 35.0763 92.4012 34.9455C92.0662 34.6556 91.6296 34.4977 91.1786 34.5035C90.8462 34.4962 90.5173 34.5713 90.2238 34.7215C89.9303 34.8717 89.682 35.092 89.5029 35.3611L88.3904 34.6882C89.0043 33.8439 89.9111 33.4217 91.1109 33.4217ZM89.4762 38.1188C89.4753 38.2732 89.5128 38.4257 89.5857 38.5634C89.6586 38.7011 89.7646 38.8201 89.8951 38.9104C90.1746 39.1215 90.5216 39.2332 90.8771 39.2266C91.4105 39.2259 91.9217 39.022 92.2987 38.6596C92.4953 38.4927 92.6527 38.2876 92.7605 38.0578C92.8682 37.8281 92.9239 37.5789 92.9238 37.3269C92.5302 37.0281 91.9808 36.8786 91.2755 36.8784C90.8188 36.8624 90.3687 36.9873 89.9912 37.2348C89.648 37.4722 89.4763 37.7669 89.4763 38.1188H89.4762Z" fill="#0E2E49"/>
<path d="M99.9564 40.0976H98.6932V30.6506H99.957L99.9564 40.0976Z" fill="#0E2E49"/>
<path d="M101.66 33.6327H102.869V34.5299H102.923C103.138 34.1932 103.444 33.9194 103.809 33.7383C104.188 33.5321 104.616 33.4232 105.052 33.4221C105.876 33.4221 106.51 33.6485 106.954 34.1015C107.399 34.5545 107.621 35.1988 107.621 36.0345V40.0982H106.358V36.1132C106.33 35.0576 105.776 34.5298 104.695 34.5298C104.452 34.5275 104.211 34.5793 103.992 34.6811C103.773 34.783 103.581 34.9321 103.432 35.1169C103.092 35.5113 102.911 36.0102 102.923 36.5221V40.0977H101.66V33.6327Z" fill="#0E2E49"/>
<path d="M114.132 38.3035C114.132 38.8666 113.875 39.3415 113.363 39.7284C112.85 40.1153 112.204 40.3088 111.426 40.3089C110.79 40.321 110.166 40.1435 109.64 39.8009C109.138 39.4752 108.754 39.0071 108.541 38.4618L109.668 38.0001C109.812 38.3619 110.063 38.6758 110.389 38.9038C110.69 39.1148 111.053 39.2281 111.426 39.2271C111.781 39.2395 112.131 39.1523 112.435 38.9763C112.705 38.8091 112.841 38.6113 112.841 38.3827C112.841 37.9694 112.511 37.666 111.852 37.4723L110.698 37.1952C109.388 36.8786 108.734 36.2716 108.734 35.3742C108.727 35.0968 108.792 34.8221 108.923 34.5746C109.053 34.3272 109.246 34.1146 109.483 33.9558C109.982 33.5996 110.62 33.4215 111.399 33.4215C111.966 33.4143 112.524 33.5557 113.013 33.8305C113.468 34.0757 113.824 34.4617 114.022 34.9256L112.896 35.3742C112.767 35.1007 112.548 34.8758 112.272 34.7344C111.975 34.5785 111.641 34.499 111.303 34.5034C110.99 34.499 110.683 34.5815 110.418 34.741C110.157 34.8993 110.026 35.0928 110.026 35.3216C110.026 35.6909 110.388 35.9548 111.112 36.1132L112.128 36.364C113.464 36.6807 114.132 37.3272 114.132 38.3035Z" fill="#0E2E49"/>
<path d="M117.772 40.2025C117.267 40.2188 116.776 40.0435 116.405 39.7147C116.043 39.3892 115.858 38.9362 115.849 38.3556V34.7402H114.668V33.6319H115.849V31.6528H117.113V33.6319H118.761V34.7402H117.113V37.9591C117.113 38.3902 117.2 38.6827 117.374 38.8366C117.532 38.9843 117.744 39.0671 117.964 39.0674C118.063 39.0677 118.163 39.0567 118.259 39.0347C118.351 39.0142 118.441 38.9855 118.527 38.949L118.925 40.0309C118.554 40.1516 118.164 40.2097 117.772 40.2025Z" fill="#0E2E49"/>
<path d="M121.617 31.4032C121.617 31.6011 121.545 31.7928 121.414 31.9456C121.283 32.0984 121.101 32.2029 120.899 32.2412C120.697 32.2796 120.487 32.2494 120.306 32.1559C120.124 32.0624 119.982 31.9114 119.903 31.7284C119.824 31.5455 119.814 31.342 119.874 31.1527C119.934 30.9633 120.06 30.7997 120.232 30.6898C120.403 30.5799 120.609 30.5304 120.814 30.5498C121.019 30.5693 121.211 30.6563 121.356 30.7963C121.441 30.875 121.507 30.9694 121.552 31.0738C121.597 31.1782 121.619 31.2903 121.617 31.4032ZM121.356 33.633V40.098H120.093V33.633H121.356Z" fill="#0E2E49"/>
<path d="M125.546 40.2025C125.042 40.2188 124.551 40.0435 124.18 39.7147C123.818 39.3892 123.632 38.9362 123.623 38.3556V34.7402H122.442V33.6319H123.623V31.6528H124.887V33.6319H126.535V34.7402H124.887V37.9591C124.887 38.3902 124.974 38.6827 125.148 38.8366C125.306 38.9843 125.518 39.0671 125.738 39.0674C125.838 39.0677 125.937 39.0567 126.033 39.0347C126.125 39.0142 126.215 38.9855 126.301 38.949L126.7 40.0309C126.328 40.1516 125.938 40.2097 125.546 40.2025Z" fill="#0E2E49"/>
<path d="M133.595 40.0978H132.386V39.2006H132.331C132.117 39.5373 131.811 39.8111 131.446 39.9923C131.066 40.1984 130.638 40.3073 130.203 40.3085C129.378 40.3085 128.744 40.0821 128.3 39.6291C127.856 39.1761 127.634 38.5318 127.634 37.6961V33.6328H128.898V37.6173C128.925 38.6729 129.479 39.2007 130.56 39.2007C130.803 39.203 131.044 39.1512 131.263 39.0494C131.483 38.9475 131.674 38.7984 131.824 38.6136C132.164 38.2192 132.344 37.7203 132.332 37.2084V33.6328H133.596L133.595 40.0978Z" fill="#0E2E49"/>
<path d="M137.812 40.2025C137.307 40.2189 136.816 40.0436 136.445 39.7147C136.083 39.3892 135.898 38.9362 135.889 38.3556V34.7402H134.708V33.6319H135.889V31.6528H137.152V33.6319H138.801V34.7402H137.152V37.9591C137.152 38.3902 137.24 38.6827 137.414 38.8365C137.572 38.9843 137.783 39.0671 138.004 39.0674C138.103 39.0677 138.202 39.0567 138.299 39.0347C138.391 39.0142 138.481 38.9855 138.567 38.949L138.965 40.0309C138.594 40.1515 138.204 40.2096 137.812 40.2025Z" fill="#0E2E49"/>
<path d="M142.908 40.309C141.919 40.309 141.104 39.9835 140.463 39.3326C139.822 38.6817 139.501 37.8593 139.501 36.8653C139.501 35.8803 139.812 35.0601 140.435 34.4047C141.058 33.7493 141.855 33.4216 142.825 33.4217C143.823 33.4217 144.617 33.7317 145.208 34.3518C145.799 34.9719 146.094 35.8406 146.094 36.9579L146.08 37.0897H140.792C140.81 37.7231 141.03 38.2333 141.451 38.6203C141.65 38.8084 141.887 38.9566 142.146 39.0562C142.405 39.1558 142.683 39.205 142.962 39.2008C143.768 39.2008 144.4 38.8138 144.858 38.0398L145.984 38.5676C145.697 39.0978 145.262 39.5409 144.727 39.8473C144.177 40.159 143.547 40.3187 142.908 40.309ZM140.888 36.0869H144.748C144.735 35.874 144.677 35.6659 144.579 35.4745C144.482 35.2831 144.345 35.1123 144.178 34.9719C143.835 34.6774 143.374 34.53 142.798 34.5299C142.348 34.5209 141.91 34.6711 141.568 34.9521C141.217 35.2472 140.977 35.6465 140.889 36.0869H140.888Z" fill="#0E2E49"/>
<path d="M149.775 36.8653C149.775 35.8714 150.1 35.049 150.75 34.398C151.41 33.7472 152.238 33.4218 153.236 33.4217C154.234 33.4216 155.059 33.7471 155.709 34.398C156.368 35.0491 156.698 35.8715 156.698 36.8653C156.698 37.868 156.368 38.6904 155.709 39.3326C155.059 39.9837 154.234 40.3091 153.236 40.309C152.238 40.3088 151.41 39.9834 150.75 39.3326C150.1 38.6818 149.775 37.8593 149.775 36.8653ZM151.039 36.8653C151.039 37.5603 151.249 38.1232 151.671 38.5542C151.872 38.7584 152.115 38.921 152.384 39.0322C152.654 39.1433 152.944 39.2006 153.237 39.2006C153.53 39.2006 153.82 39.1433 154.089 39.0322C154.358 38.921 154.601 38.7584 154.802 38.5542C155.224 38.1233 155.434 37.5604 155.434 36.8653C155.434 36.1792 155.224 35.6207 154.802 35.1897C154.603 34.9817 154.361 34.8157 154.091 34.7022C153.822 34.5886 153.531 34.53 153.237 34.53C152.942 34.53 152.651 34.5886 152.382 34.7022C152.112 34.8157 151.87 34.9817 151.671 35.1897C151.249 35.6207 151.039 36.1792 151.039 36.8653Z" fill="#0E2E49"/>
<path d="M160.695 30.5451C161.084 30.5308 161.471 30.6078 161.822 30.7694L161.478 31.838C161.248 31.7302 160.993 31.676 160.737 31.6798C160.594 31.6754 160.452 31.7008 160.32 31.7543C160.188 31.8079 160.07 31.8883 159.974 31.9899C159.769 32.2182 159.664 32.5135 159.679 32.8146V33.6324H161.437V34.741H159.679V40.0977H158.416V34.741H157.152V33.6327H158.416V32.6959C158.416 32.054 158.628 31.535 159.054 31.1391C159.48 30.7431 160.027 30.5451 160.695 30.5451Z" fill="#0E2E49"/>
<path d="M167.041 40.0976H165.777V30.6506H167.041V40.0976Z" fill="#0E2E49"/>
<path d="M168.744 33.6327H169.953V34.5299H170.008C170.222 34.1932 170.528 33.9194 170.893 33.7383C171.272 33.5321 171.701 33.4232 172.136 33.4221C172.96 33.4221 173.595 33.6485 174.039 34.1015C174.483 34.5545 174.705 35.1988 174.705 36.0345V40.0982H173.441V36.1132C173.414 35.0576 172.86 34.5298 171.779 34.5298C171.536 34.5275 171.295 34.5793 171.076 34.6811C170.856 34.783 170.665 34.9321 170.515 35.1169C170.175 35.5113 169.995 36.0102 170.007 36.5221V40.0977H168.743L168.744 33.6327Z" fill="#0E2E49"/>
<path d="M178.95 40.3087C178.071 40.3087 177.315 39.9743 176.683 39.3055C176.08 38.6241 175.749 37.7589 175.749 36.8646C175.749 35.9703 176.08 35.1051 176.683 34.4237C177.315 33.7555 178.071 33.4211 178.95 33.4206C179.42 33.4154 179.884 33.5198 180.303 33.7249C180.686 33.9067 181.011 34.1848 181.243 34.5297H181.298L181.243 33.6325V30.6506H182.507V40.0975H181.299V39.2003H181.244C181.011 39.5453 180.686 39.8234 180.303 40.0051C179.884 40.21 179.42 40.3141 178.95 40.3087ZM179.156 39.2004C179.444 39.2086 179.731 39.1548 179.994 39.0429C180.258 38.931 180.493 38.764 180.681 38.5539C181.093 38.123 181.299 37.5601 181.299 36.8651C181.299 36.1878 181.093 35.6293 180.681 35.1894C180.493 34.9774 180.26 34.8082 179.996 34.6941C179.732 34.58 179.445 34.5238 179.156 34.5297C178.867 34.5256 178.581 34.5825 178.317 34.6965C178.053 34.8105 177.819 34.9788 177.631 35.1894C177.219 35.6294 177.013 36.188 177.013 36.8651C177.013 37.5511 177.219 38.1097 177.631 38.5407C177.819 38.7514 178.053 38.9197 178.317 39.0337C178.581 39.1477 178.867 39.2046 179.156 39.2004H179.156Z" fill="#0E2E49"/>
<path d="M189.897 40.0978H188.689V39.2006H188.634C188.419 39.5373 188.113 39.8111 187.748 39.9923C187.369 40.1984 186.941 40.3073 186.505 40.3085C185.681 40.3085 185.047 40.0821 184.603 39.6291C184.158 39.1761 183.936 38.5318 183.937 37.6961V33.6328H185.2V37.6173C185.228 38.6729 185.782 39.2007 186.862 39.2007C187.106 39.203 187.347 39.1512 187.566 39.0494C187.785 38.9475 187.977 38.7984 188.126 38.6136C188.466 38.2192 188.646 37.7203 188.634 37.2084V33.6328H189.898L189.897 40.0978Z" fill="#0E2E49"/>
<path d="M196.463 38.3035C196.463 38.8666 196.206 39.3415 195.694 39.7284C195.181 40.1153 194.535 40.3088 193.757 40.3089C193.121 40.321 192.497 40.1435 191.971 39.8009C191.469 39.4752 191.085 39.0071 190.872 38.4618L191.999 38.0001C192.143 38.3619 192.394 38.6758 192.72 38.9038C193.021 39.1148 193.384 39.2281 193.757 39.2271C194.112 39.2395 194.462 39.1523 194.767 38.9763C195.037 38.8091 195.172 38.6113 195.172 38.3827C195.172 37.9694 194.842 37.666 194.183 37.4723L193.029 37.1952C191.719 36.8786 191.065 36.2716 191.065 35.3742C191.058 35.0968 191.123 34.8221 191.254 34.5746C191.384 34.3272 191.577 34.1146 191.814 33.9558C192.313 33.5996 192.951 33.4215 193.73 33.4215C194.297 33.4143 194.855 33.5557 195.344 33.8305C195.799 34.0757 196.155 34.4617 196.354 34.9256L195.227 35.3742C195.098 35.1007 194.879 34.8758 194.603 34.7344C194.306 34.5785 193.973 34.499 193.634 34.5034C193.322 34.499 193.014 34.5815 192.749 34.741C192.488 34.8993 192.357 35.0928 192.357 35.3216C192.357 35.6909 192.719 35.9548 193.443 36.1132L194.459 36.364C195.795 36.6807 196.463 37.3272 196.463 38.3035Z" fill="#0E2E49"/>
<path d="M200.103 40.2025C199.598 40.2188 199.107 40.0435 198.736 39.7147C198.374 39.3892 198.189 38.9362 198.18 38.3556V34.7402H196.999V33.6319H198.18V31.6528H199.444V33.6319H201.092V34.7402H199.444V37.9591C199.444 38.3902 199.531 38.6827 199.705 38.8366C199.863 38.9843 200.075 39.0671 200.295 39.0674C200.394 39.0677 200.494 39.0567 200.59 39.0347C200.682 39.0142 200.772 38.9855 200.858 38.949L201.256 40.0309C200.885 40.1516 200.495 40.2097 200.103 40.2025Z" fill="#0E2E49"/>
<path d="M203.509 40.0976H202.246V33.6326H203.454V34.6881H203.509C203.661 34.318 203.94 34.0085 204.299 33.8106C204.646 33.5843 205.054 33.4584 205.474 33.4479C205.793 33.4396 206.111 33.4934 206.408 33.6062L206.023 34.7805C205.784 34.7072 205.532 34.676 205.281 34.6881C205.045 34.6886 204.811 34.7383 204.596 34.834C204.382 34.9297 204.191 35.069 204.038 35.2423C203.694 35.5911 203.505 36.0546 203.51 36.5352L203.509 40.0976Z" fill="#0E2E49"/>
<path d="M208.811 31.4032C208.811 31.6011 208.739 31.7928 208.608 31.9456C208.477 32.0984 208.295 32.2029 208.093 32.2412C207.89 32.2796 207.681 32.2494 207.499 32.1559C207.317 32.0624 207.175 31.9114 207.096 31.7284C207.018 31.5455 207.007 31.342 207.067 31.1527C207.127 30.9633 207.254 30.7997 207.425 30.6898C207.596 30.5799 207.802 30.5304 208.007 30.5498C208.212 30.5693 208.404 30.6563 208.55 30.7963C208.634 30.875 208.701 30.9694 208.746 31.0738C208.791 31.1782 208.813 31.2903 208.811 31.4032ZM208.55 33.633V40.098H207.286V33.633H208.55Z" fill="#0E2E49"/>
<path d="M212.629 33.4217C213.563 33.4217 214.301 33.6614 214.841 34.1408C215.381 34.6202 215.651 35.2778 215.651 36.1134V40.0979H214.443V39.2007H214.388C213.865 39.9396 213.169 40.309 212.3 40.309C211.558 40.309 210.938 40.0979 210.438 39.6756C210.199 39.4818 210.007 39.2391 209.878 38.9652C209.748 38.6913 209.684 38.3931 209.689 38.0923C209.678 37.7848 209.744 37.4794 209.882 37.2016C210.019 36.9238 210.224 36.6817 210.479 36.4957C211.006 36.1 211.709 35.9021 212.588 35.9021C213.338 35.9021 213.957 36.034 214.442 36.2979V36.0208C214.444 35.8156 214.397 35.6126 214.307 35.4266C214.217 35.2406 214.085 35.0763 213.92 34.9455C213.585 34.6556 213.148 34.4977 212.697 34.5035C212.365 34.4962 212.036 34.5713 211.742 34.7215C211.449 34.8717 211.201 35.092 211.021 35.3611L209.909 34.6882C210.523 33.8439 211.43 33.4217 212.629 33.4217ZM210.995 38.1188C210.994 38.2732 211.031 38.4257 211.104 38.5634C211.177 38.7011 211.283 38.8201 211.414 38.9104C211.693 39.1215 212.04 39.2332 212.396 39.2266C212.929 39.2259 213.44 39.022 213.817 38.6596C214.014 38.4927 214.171 38.2876 214.279 38.0578C214.387 37.8281 214.442 37.5789 214.442 37.3269C214.049 37.0281 213.499 36.8786 212.794 36.8784C212.337 36.8624 211.887 36.9873 211.51 37.2348C211.166 37.4722 210.995 37.7669 210.995 38.1188Z" fill="#0E2E49"/>
<path d="M218.289 30.6506V40.0976H217.025V30.6506H218.289Z" fill="#0E2E49"/>
<path d="M225.761 31.8118V40.0976H224.497V31.8118H221.75V30.6506H228.508V31.8117L225.761 31.8118Z" fill="#0E2E49"/>
<path d="M231.475 40.309C230.486 40.309 229.671 39.9835 229.03 39.3326C228.389 38.6817 228.069 37.8593 228.068 36.8653C228.068 35.8803 228.38 35.0601 229.003 34.4047C229.625 33.7493 230.422 33.4216 231.393 33.4217C232.391 33.4217 233.185 33.7317 233.776 34.3518C234.366 34.9719 234.662 35.8406 234.661 36.9579L234.647 37.0897H229.359C229.377 37.7231 229.597 38.2333 230.019 38.6203C230.218 38.8084 230.454 38.9566 230.713 39.0562C230.973 39.1558 231.25 39.205 231.529 39.2008C232.335 39.2008 232.967 38.8138 233.425 38.0398L234.552 38.5676C234.264 39.0978 233.829 39.5409 233.295 39.8473C232.744 40.159 232.114 40.3187 231.475 40.309ZM229.456 36.0869H233.316C233.302 35.874 233.245 35.6659 233.147 35.4745C233.05 35.2831 232.913 35.1123 232.746 34.9719C232.402 34.6774 231.942 34.53 231.365 34.5299C230.916 34.5209 230.478 34.6711 230.136 34.9521C229.784 35.2472 229.545 35.6465 229.456 36.0869Z" fill="#0E2E49"/>
<path d="M238.906 40.3088C237.908 40.3088 237.079 39.9834 236.42 39.3325C235.77 38.6642 235.445 37.8418 235.445 36.8652C235.445 35.8713 235.77 35.0489 236.42 34.398C237.079 33.7471 237.908 33.4217 238.906 33.4216C239.537 33.4035 240.159 33.5723 240.688 33.9051C241.216 34.2379 241.625 34.7186 241.859 35.2821L240.706 35.7437C240.348 34.9347 239.721 34.53 238.824 34.5299C238.538 34.5301 238.256 34.5905 237.997 34.7067C237.739 34.823 237.51 34.9923 237.327 35.2028C236.927 35.6717 236.708 36.2591 236.708 36.8652C236.708 37.4713 236.927 38.0587 237.327 38.5277C237.51 38.7381 237.739 38.9075 237.997 39.0237C238.256 39.14 238.538 39.2003 238.824 39.2006C239.749 39.2006 240.399 38.7959 240.774 37.9867L241.901 38.4484C241.671 39.0084 241.265 39.4857 240.74 39.8139C240.193 40.1495 239.555 40.3217 238.906 40.3088Z" fill="#0E2E49"/>
<path d="M242.944 30.6506H244.208V33.6325L244.153 34.5297H244.208C244.422 34.1931 244.728 33.9192 245.093 33.7381C245.472 33.5319 245.901 33.423 246.336 33.4219C247.16 33.4219 247.795 33.6484 248.239 34.1013C248.683 34.5543 248.905 35.1986 248.905 36.0343V40.0981H247.642V36.2718C247.642 35.1108 247.107 34.5303 246.035 34.5302C245.784 34.5292 245.536 34.584 245.311 34.6905C245.086 34.7969 244.889 34.952 244.737 35.1437C244.388 35.5444 244.2 36.0526 244.208 36.5753V40.0981H242.945L242.944 30.6506Z" fill="#0E2E49"/>
<path d="M250.334 33.6327H251.542V34.5299H251.597C251.811 34.1932 252.118 33.9194 252.483 33.7383C252.862 33.5321 253.29 33.4232 253.726 33.4221C254.55 33.4221 255.184 33.6485 255.628 34.1015C256.072 34.5545 256.294 35.1988 256.294 36.0345V40.0982H255.031V36.1132C255.003 35.0576 254.449 34.5298 253.368 34.5298C253.125 34.5275 252.884 34.5793 252.665 34.6811C252.446 34.783 252.254 34.9321 252.105 35.1169C251.765 35.5113 251.584 36.0102 251.596 36.5221V40.0977H250.333L250.334 33.6327Z" fill="#0E2E49"/>
<path d="M257.339 36.8653C257.339 35.8714 257.664 35.049 258.314 34.398C258.974 33.7472 259.802 33.4218 260.8 33.4217C261.798 33.4216 262.622 33.7471 263.273 34.398C263.932 35.0491 264.262 35.8715 264.262 36.8653C264.262 37.868 263.932 38.6904 263.273 39.3326C262.622 39.9837 261.798 40.3091 260.8 40.309C259.802 40.3088 258.974 39.9834 258.314 39.3326C257.664 38.6818 257.339 37.8593 257.339 36.8653ZM258.603 36.8653C258.603 37.5603 258.813 38.1232 259.234 38.5542C259.436 38.7584 259.679 38.921 259.948 39.0322C260.217 39.1433 260.507 39.2006 260.8 39.2006C261.093 39.2006 261.383 39.1433 261.653 39.0322C261.922 38.921 262.165 38.7584 262.366 38.5542C262.787 38.1233 262.998 37.5604 262.998 36.8653C262.998 36.1792 262.787 35.6207 262.366 35.1897C262.167 34.9817 261.925 34.8157 261.655 34.7022C261.386 34.5886 261.095 34.53 260.8 34.53C260.506 34.53 260.215 34.5886 259.945 34.7022C259.676 34.8157 259.434 34.9817 259.234 35.1897C258.813 35.6207 258.603 36.1792 258.603 36.8653Z" fill="#0E2E49"/>
<path d="M266.556 30.6502V40.0971H265.292V30.6502H266.556Z" fill="#0E2E49"/>
<path d="M267.586 36.8653C267.586 35.8714 267.911 35.049 268.561 34.398C269.221 33.7472 270.049 33.4218 271.047 33.4217C272.045 33.4216 272.869 33.7471 273.52 34.398C274.179 35.0491 274.509 35.8715 274.509 36.8653C274.509 37.868 274.179 38.6904 273.52 39.3326C272.869 39.9837 272.045 40.3091 271.047 40.309C270.049 40.3088 269.221 39.9834 268.561 39.3326C267.911 38.6818 267.586 37.8593 267.586 36.8653ZM268.85 36.8653C268.85 37.5603 269.06 38.1232 269.481 38.5542C269.683 38.7584 269.926 38.921 270.195 39.0322C270.464 39.1433 270.754 39.2006 271.047 39.2006C271.34 39.2006 271.63 39.1433 271.9 39.0322C272.169 38.921 272.412 38.7584 272.613 38.5542C273.034 38.1233 273.245 37.5604 273.245 36.8653C273.245 36.1792 273.035 35.6207 272.613 35.1897C272.414 34.9817 272.172 34.8157 271.902 34.7022C271.633 34.5886 271.342 34.53 271.047 34.53C270.753 34.53 270.462 34.5886 270.192 34.7022C269.923 34.8157 269.681 34.9817 269.481 35.1897C269.06 35.6207 268.85 36.1792 268.85 36.8653Z" fill="#0E2E49"/>
<path d="M278.588 43.1587C278.231 43.161 277.875 43.1143 277.531 43.0201C277.213 42.9328 276.91 42.8017 276.631 42.6309C276.368 42.47 276.134 42.2695 275.937 42.0372C275.745 41.8088 275.596 41.5498 275.498 41.2719L276.693 40.7971C276.823 41.1662 277.074 41.4854 277.407 41.7074C277.753 41.9384 278.167 42.0584 278.588 42.0505C279.275 42.0505 279.811 41.8526 280.195 41.4568C280.58 41.0609 280.772 40.5157 280.772 39.8212V39.201H280.717C280.474 39.5483 280.14 39.828 279.749 40.0124C279.338 40.2111 278.884 40.3129 278.423 40.3093C277.544 40.3093 276.789 39.9795 276.157 39.3198C275.535 38.6441 275.201 37.7676 275.223 36.8657C275.223 35.9071 275.534 35.0935 276.157 34.4248C276.789 33.7566 277.544 33.4222 278.423 33.4217C278.884 33.418 279.338 33.5196 279.749 33.7183C280.14 33.9026 280.474 34.1824 280.717 34.5296H280.772V33.6324H281.982V39.8203C281.982 40.8581 281.675 41.6717 281.061 42.2613C280.438 42.8595 279.614 43.1586 278.588 43.1587ZM278.63 39.2005C278.918 39.2087 279.204 39.1549 279.468 39.043C279.732 38.9311 279.966 38.7641 280.154 38.554C280.566 38.1231 280.772 37.5602 280.772 36.8652C280.772 36.188 280.566 35.6294 280.154 35.1895C279.967 34.9776 279.733 34.8083 279.469 34.6942C279.206 34.5801 278.919 34.5239 278.63 34.5298C278.341 34.5257 278.054 34.5826 277.791 34.6966C277.527 34.8106 277.293 34.9789 277.105 35.1895C276.693 35.6296 276.487 36.1881 276.487 36.8652C276.487 37.5513 276.693 38.1098 277.105 38.5408C277.293 38.7515 277.527 38.9198 277.791 39.0338C278.054 39.1479 278.341 39.2048 278.63 39.2006V39.2005Z" fill="#0E2E49"/>
<path d="M289.481 33.6328L285.264 42.9477H283.958L285.524 39.6888L282.75 33.6328H284.123L286.129 38.2771H286.156L288.107 33.6328H289.481Z" fill="#0E2E49"/>
<path d="M53.436 20.1419V3.20013H58.8308C61.5239 3.20013 63.6876 3.98094 65.3219 5.54255C66.9562 7.10416 67.7732 9.14686 67.7729 11.6707C67.7729 14.2105 66.9559 16.2573 65.3219 17.811C63.6879 19.3647 61.5242 20.1415 58.8308 20.1416L53.436 20.1419ZM55.7023 5.28238V18.0598H58.8309C60.8836 18.0598 62.5012 17.4958 63.6837 16.3679C64.8662 15.24 65.4574 13.6744 65.4574 11.6711C65.4574 9.68342 64.8662 8.12173 63.6837 6.98604C62.5012 5.85034 60.8836 5.28245 58.8309 5.28238H55.7023Z" fill="#0E2E49"/>
<path d="M75.2861 20.5219C73.5124 20.5219 72.0508 19.9382 70.9012 18.7708C69.7517 17.6034 69.1769 16.1285 69.177 14.3461C69.177 12.5797 69.7354 11.1087 70.8521 9.93313C71.9688 8.75758 73.3976 8.16985 75.1385 8.16992C76.9283 8.16992 78.3529 8.72603 79.4124 9.83826C80.4718 10.9505 81.0016 12.5082 81.0016 14.5115L80.9769 14.7481H71.4922C71.5249 15.8839 71.9191 16.7988 72.6746 17.4929C73.032 17.8302 73.4555 18.0959 73.9207 18.2747C74.3859 18.4534 74.8834 18.5416 75.3844 18.534C76.8293 18.534 77.9625 17.8398 78.7838 16.4513L80.8038 17.3978C80.2886 18.3488 79.5082 19.1435 78.5499 19.693C77.562 20.2524 76.4326 20.5392 75.2861 20.5219ZM71.6648 12.9501H78.5869C78.5629 12.5684 78.4602 12.1951 78.2848 11.8519C78.1094 11.5086 77.8648 11.2022 77.5652 10.9505C76.9492 10.4222 76.124 10.158 75.0894 10.1578C74.2826 10.1415 73.4978 10.4111 72.8847 10.915C72.2682 11.4201 71.8615 12.0985 71.6648 12.9501Z" fill="#0E2E49"/>
<path d="M88.8591 20.1433H86.5927L81.7153 8.54895H84.1787L87.726 17.5406H87.7752L91.3719 8.54895H93.7861L88.8591 20.1433Z" fill="#0E2E49"/>
<path d="M100.486 20.5219C98.7124 20.5219 97.2508 19.9382 96.1012 18.7708C94.9516 17.6034 94.3769 16.1285 94.377 14.3461C94.377 12.5797 94.9353 11.1087 96.052 9.93313C97.1688 8.75758 98.5975 8.16985 100.338 8.16992C102.128 8.16992 103.553 8.72603 104.612 9.83826C105.672 10.9505 106.201 12.5082 106.201 14.5115L106.177 14.7481H96.6924C96.7251 15.8839 97.1192 16.7988 97.8748 17.4929C98.2322 17.8302 98.6557 18.0959 99.1209 18.2747C99.5861 18.4534 100.084 18.5416 100.585 18.534C102.029 18.534 103.163 17.8398 103.984 16.4513L106.004 17.3978C105.489 18.3488 104.708 19.1435 103.75 19.693C102.762 20.2524 101.633 20.5392 100.486 20.5219ZM96.8647 12.9502H103.787C103.763 12.5685 103.66 12.1952 103.485 11.852C103.309 11.5087 103.065 11.2023 102.765 10.9506C102.149 10.4223 101.324 10.1581 100.289 10.1579C99.4826 10.1416 98.6978 10.4112 98.0846 10.9152C97.4686 11.4202 97.062 12.0985 96.865 12.9501L96.8647 12.9502Z" fill="#0E2E49"/>
<path d="M110.709 3.20013V20.1419H108.442V3.20013H110.709Z" fill="#0E2E49"/>
<path d="M112.827 14.346C112.827 12.5636 113.41 11.0886 114.576 9.92116C115.758 8.75406 117.245 8.17043 119.035 8.17029C120.825 8.17014 122.303 8.75377 123.469 9.92116C124.651 11.0888 125.242 12.5637 125.242 14.346C125.242 16.1443 124.651 17.6192 123.469 18.7707C122.303 19.9383 120.825 20.522 119.035 20.5218C117.245 20.5216 115.759 19.9379 114.576 18.7707C113.41 17.6037 112.827 16.1288 112.827 14.346ZM115.093 14.346C115.093 15.5924 115.471 16.6019 116.226 17.3747C116.588 17.7409 117.024 18.0326 117.506 18.232C117.989 18.4313 118.509 18.5341 119.035 18.5341C119.56 18.5341 120.08 18.4313 120.563 18.232C121.046 18.0326 121.481 17.7409 121.843 17.3747C122.598 16.602 122.976 15.5925 122.976 14.346C122.976 13.1155 122.598 12.1138 121.843 11.3409C121.485 10.9679 121.051 10.6702 120.568 10.4665C120.085 10.2629 119.563 10.1577 119.035 10.1577C118.507 10.1577 117.985 10.2629 117.501 10.4665C117.018 10.6702 116.584 10.9679 116.226 11.3409C115.471 12.114 115.094 13.1157 115.094 14.346H115.093Z" fill="#0E2E49"/>
<path d="M133.643 20.522C132.8 20.532 131.968 20.3452 131.217 19.9778C130.529 19.6521 129.945 19.1533 129.529 18.5344H129.431L129.529 20.1435V25.2545H127.263V8.54898H129.431V10.158H129.53C129.946 9.53939 130.529 9.04066 131.217 8.71472C131.968 8.34736 132.801 8.16064 133.644 8.17061C135.236 8.17061 136.583 8.77001 137.684 9.96881C138.817 11.1837 139.383 12.6429 139.383 14.3464C139.383 16.0659 138.817 17.525 137.684 18.7238C136.583 19.9228 135.236 20.5222 133.643 20.522ZM133.274 18.5343C133.792 18.5418 134.305 18.4397 134.778 18.2353C135.25 18.0308 135.67 17.729 136.008 17.3513C136.747 16.5787 137.116 15.577 137.116 14.3463C137.116 13.1317 136.747 12.13 136.008 11.3411C135.663 10.9689 135.24 10.6711 134.766 10.4671C134.293 10.2632 133.78 10.1578 133.261 10.1578C132.742 10.1578 132.229 10.2632 131.756 10.4671C131.282 10.6711 130.859 10.9689 130.514 11.3411C129.791 12.13 129.43 13.1318 129.43 14.3463C129.43 15.5766 129.792 16.5862 130.514 17.3749C130.859 17.7485 131.285 18.0456 131.761 18.2458C132.238 18.446 132.754 18.5444 133.274 18.5343Z" fill="#0E2E49"/>
<path d="M147.043 20.5219C145.27 20.5219 143.808 19.9382 142.659 18.7708C141.509 17.6034 140.934 16.1285 140.934 14.3461C140.934 12.5797 141.493 11.1087 142.609 9.93312C143.726 8.75758 145.155 8.16985 146.896 8.16992C148.686 8.16992 150.11 8.72603 151.17 9.83826C152.229 10.9505 152.759 12.5082 152.759 14.5115L152.734 14.7481H143.25C143.283 15.8838 143.677 16.7988 144.433 17.4929C144.79 17.8302 145.213 18.0959 145.679 18.2747C146.144 18.4534 146.641 18.5416 147.142 18.534C148.587 18.534 149.72 17.8398 150.542 16.4513L152.562 17.3978C152.046 18.3488 151.266 19.1435 150.308 19.693C149.32 20.2524 148.19 20.5393 147.043 20.5219ZM143.422 12.9502H150.344C150.32 12.5685 150.218 12.1952 150.042 11.852C149.867 11.5087 149.622 11.2023 149.323 10.9506C148.707 10.4223 147.881 10.1581 146.847 10.1579C146.04 10.1416 145.255 10.4112 144.642 10.9152C144.026 11.4202 143.62 12.0985 143.422 12.9501L143.422 12.9502Z" fill="#0E2E49"/>
<path d="M157.267 20.1434H155V8.54909H157.169V10.442H157.267C157.497 9.8269 157.969 9.30238 158.684 8.86847C159.398 8.43455 160.1 8.21767 160.79 8.21782C161.363 8.20285 161.932 8.29929 162.465 8.50132L161.775 10.6072C161.496 10.4971 161.052 10.4419 160.445 10.4416C159.591 10.4416 158.848 10.7729 158.216 11.4354C157.599 12.061 157.258 12.8924 157.267 13.7543L157.267 20.1434Z" fill="#0E2E49"/>
<path d="M180.25 15.6241C180.25 17.107 179.683 18.298 178.55 19.197C177.4 20.0806 176.004 20.5223 174.362 20.5221C172.965 20.5429 171.602 20.1093 170.495 19.2917C169.378 18.4716 168.606 17.3516 168.179 15.9318L170.347 15.0799C170.485 15.5627 170.692 16.0246 170.963 16.4523C171.212 16.8473 171.524 17.2026 171.887 17.5052C172.235 17.7944 172.63 18.0262 173.057 18.1914C173.488 18.3578 173.948 18.4422 174.412 18.4399C175.446 18.4399 176.292 18.1836 176.949 17.6709C177.606 17.1582 177.935 16.4759 177.935 15.6241C177.939 15.2827 177.869 14.9442 177.729 14.6305C177.589 14.3167 177.382 14.0345 177.122 13.8021C176.612 13.3133 175.66 12.84 174.264 12.3823C172.852 11.8935 171.973 11.5622 171.628 11.3886C169.756 10.4739 168.82 9.12512 168.82 7.34237C168.82 6.09647 169.337 5.03168 170.372 4.14801C171.423 3.26484 172.712 2.82316 174.239 2.82294C175.586 2.82294 176.752 3.1542 177.737 3.81674C178.723 4.46372 179.38 5.27611 179.708 6.25392L177.59 7.10586C177.39 6.47204 176.979 5.91898 176.419 5.53229C175.836 5.11451 175.126 4.90548 174.289 4.90519C173.402 4.90519 172.655 5.14185 172.047 5.61516C171.76 5.80972 171.527 6.06887 171.368 6.36997C171.209 6.67108 171.129 7.00497 171.136 7.34248C171.135 7.62934 171.198 7.91305 171.321 8.17437C171.444 8.43568 171.624 8.66851 171.85 8.85706C172.375 9.28291 173.516 9.78766 175.274 10.3713C177.063 10.9552 178.34 11.669 179.104 12.5128C179.868 13.3565 180.25 14.3936 180.25 15.6241Z" fill="#0E2E49"/>
<path d="M186.925 20.3328C185.94 20.3328 185.123 20.041 184.474 19.4573C183.825 18.8736 183.493 18.0613 183.476 17.0201V10.5363H181.358V8.54906H183.476V4.99988H185.743V8.54906H188.699V10.5363H185.743V16.3098C185.743 17.0829 185.899 17.6075 186.211 17.8834C186.494 18.1486 186.874 18.2973 187.27 18.2978C187.448 18.2981 187.626 18.2782 187.799 18.2387C187.964 18.2018 188.125 18.1503 188.28 18.0848L188.994 20.0252C188.328 20.2416 187.628 20.3457 186.925 20.3328Z" fill="#0E2E49"/>
<path d="M201.631 20.1433H199.463V18.5343H199.364C199.019 19.1023 198.49 19.5755 197.775 19.9541C197.095 20.324 196.327 20.5196 195.546 20.522C194.067 20.522 192.93 20.1158 192.134 19.3034C191.337 18.4909 190.939 17.3354 190.94 15.8368V8.54895H193.206V15.695C193.255 17.5879 194.249 18.5343 196.187 18.5343C197.09 18.5343 197.845 18.1833 198.453 17.4814C199.063 16.7741 199.386 15.8794 199.364 14.9614V8.54895H201.631L201.631 20.1433Z" fill="#0E2E49"/>
<path d="M209.489 20.5207C207.912 20.5207 206.558 19.9213 205.425 18.7224C204.308 17.5078 203.749 16.0487 203.75 14.3449C203.75 12.6412 204.308 11.1822 205.425 9.9679C206.558 8.76932 207.913 8.16992 209.489 8.1697C210.332 8.15978 211.164 8.3465 211.915 8.71382C212.603 9.03986 213.186 9.53858 213.603 10.1571H213.701L213.603 8.54807V3.20013H215.869V20.142H213.701V18.533H213.602C213.186 19.1518 212.603 19.6506 211.915 19.9764C211.164 20.3437 210.331 20.5305 209.489 20.5207ZM209.858 18.533C210.975 18.533 211.886 18.1465 212.593 17.3736C213.332 16.6009 213.701 15.5914 213.701 14.3449C213.701 13.1304 213.332 12.1286 212.593 11.3398C212.257 10.9596 211.838 10.6561 211.365 10.4514C210.892 10.2467 210.377 10.146 209.858 10.1565C209.34 10.1492 208.827 10.2513 208.354 10.4558C207.882 10.6603 207.462 10.9621 207.124 11.3398C206.385 12.1287 206.015 13.1304 206.015 14.3449C206.015 15.5753 206.385 16.577 207.124 17.35C207.462 17.7278 207.882 18.0296 208.354 18.2341C208.827 18.4385 209.341 18.5406 209.859 18.533H209.858Z" fill="#0E2E49"/>
<path d="M224.097 20.5219C222.323 20.5219 220.862 19.9382 219.712 18.7708C218.562 17.6034 217.988 16.1285 217.988 14.3461C217.988 12.5797 218.546 11.1087 219.663 9.93312C220.78 8.75758 222.208 8.16985 223.949 8.16992C225.739 8.16992 227.164 8.72603 228.223 9.83826C229.282 10.9505 229.812 12.5082 229.812 14.5115L229.788 14.7481H220.304C220.336 15.8838 220.73 16.7988 221.486 17.4929C221.843 17.8302 222.267 18.0959 222.732 18.2747C223.197 18.4534 223.695 18.5416 224.196 18.534C225.641 18.534 226.774 17.8398 227.595 16.4513L229.615 17.3978C229.1 18.3488 228.32 19.1435 227.361 19.693C226.373 20.2525 225.244 20.5393 224.097 20.5219ZM220.476 12.9502H227.398C227.374 12.5685 227.271 12.1952 227.096 11.852C226.92 11.5087 226.676 11.2023 226.376 10.9506C225.76 10.4223 224.935 10.1581 223.9 10.1579C223.093 10.1416 222.309 10.4112 221.695 10.9152C221.079 11.4202 220.673 12.0985 220.476 12.9501L220.476 12.9502Z" fill="#0E2E49"/>
<path d="M232.054 8.54877H234.222V10.1578H234.32C234.665 9.58998 235.195 9.11673 235.91 8.73807C236.59 8.36818 237.358 8.17265 238.139 8.17029C239.617 8.17029 240.755 8.57647 241.551 9.38883C242.347 10.2012 242.746 11.3567 242.746 12.8553V20.1432H240.479V12.9974C240.43 11.1043 239.436 10.1578 237.499 10.1578C236.595 10.1578 235.84 10.5088 235.232 11.2108C234.623 11.918 234.299 12.8128 234.321 13.7308V20.1432H232.055L232.054 8.54877Z" fill="#0E2E49"/>
<path d="M249.74 20.3328C248.755 20.3328 247.938 20.041 247.289 19.4573C246.64 18.8736 246.308 18.0613 246.292 17.0201V10.5363H244.173V8.54906H246.292V4.99988H248.558V8.54906H251.514V10.5363H248.558V16.3098C248.558 17.0829 248.714 17.6075 249.026 17.8834C249.309 18.1486 249.689 18.2973 250.085 18.2978C250.264 18.2981 250.441 18.2782 250.615 18.2387C250.78 18.2018 250.94 18.1503 251.095 18.0848L251.809 20.0252C251.143 20.2416 250.443 20.3457 249.74 20.3328Z" fill="#0E2E49"/>
<path d="M267.649 20.522C265.038 20.522 262.854 19.678 261.096 17.9901C259.356 16.3023 258.485 14.1964 258.485 11.6724C258.485 9.14841 259.356 7.05035 261.096 5.37824C262.837 3.67466 265.021 2.82283 267.649 2.82275C270.309 2.82275 272.469 3.74557 274.128 5.5912L272.502 7.10567C271.237 5.63863 269.619 4.90507 267.649 4.905C265.694 4.905 264.06 5.53599 262.747 6.79795C261.449 8.04437 260.801 9.66908 260.801 11.6721C260.801 13.6751 261.449 15.2998 262.747 16.5462C264.06 17.8084 265.694 18.4394 267.649 18.4392C269.702 18.4392 271.483 17.611 272.994 15.9547L274.645 17.4922C273.809 18.4531 272.756 19.218 271.566 19.7283C270.335 20.2602 268.999 20.531 267.649 20.522Z" fill="#0E2E49"/>
<path d="M279.103 3.20013V20.1419H276.837V3.20013H279.103Z" fill="#0E2E49"/>
<path d="M292.627 20.1433H290.459V18.5343H290.361C290.016 19.1023 289.486 19.5755 288.771 19.9541C288.091 20.324 287.324 20.5196 286.542 20.522C285.064 20.522 283.927 20.1158 283.13 19.3034C282.334 18.4909 281.936 17.3354 281.936 15.8368V8.54895H284.202V15.695C284.251 17.5879 285.245 18.5343 287.183 18.5343C288.085 18.5343 288.841 18.1833 289.449 17.4814C290.058 16.7741 290.382 15.8794 290.36 14.9614V8.54895H292.627L292.627 20.1433Z" fill="#0E2E49"/>
<path d="M301.939 20.5207C301.096 20.5306 300.264 20.3439 299.513 19.9765C298.825 19.6508 298.242 19.1519 297.825 18.5331H297.727V20.1421H295.559V3.20013H297.825V8.54764L297.726 10.1567H297.825C298.241 9.53806 298.824 9.03933 299.512 8.71338C300.263 8.34575 301.096 8.15884 301.939 8.16872C303.532 8.16872 304.878 8.76812 305.979 9.96692C307.112 11.1818 307.679 12.641 307.679 14.3445C307.679 16.064 307.112 17.5232 305.979 18.722C304.878 19.9213 303.532 20.5209 301.939 20.5207ZM301.57 18.533C302.088 18.5405 302.601 18.4384 303.074 18.2339C303.546 18.0295 303.966 17.7277 304.304 17.3499C305.043 16.5772 305.413 15.5755 305.413 14.3448C305.413 13.1302 305.043 12.1285 304.304 11.3396C303.959 10.9675 303.536 10.6697 303.062 10.4657C302.589 10.2618 302.076 10.1564 301.557 10.1564C301.038 10.1564 300.525 10.2618 300.052 10.4657C299.579 10.6697 299.156 10.9675 298.811 11.3396C298.088 12.1286 297.726 13.1303 297.727 14.3448C297.727 15.5752 298.088 16.5847 298.811 17.3734C299.156 17.747 299.581 18.0441 300.057 18.2443C300.534 18.4445 301.049 18.543 301.569 18.533H301.57Z" fill="#0E2E49"/>
<path d="M319.034 16.9253C319.034 17.935 318.574 18.7869 317.655 19.4808C316.735 20.1747 315.577 20.5218 314.181 20.522C312.965 20.522 311.898 20.2184 310.979 19.6111C310.078 19.0269 309.389 18.1873 309.008 17.2094L311.028 16.3809C311.287 17.0297 311.736 17.5926 312.321 18.0015C312.861 18.3799 313.513 18.583 314.181 18.5813C314.904 18.5813 315.507 18.4315 315.992 18.1317C316.476 17.832 316.719 17.4771 316.718 17.0669C316.718 16.3255 316.127 15.7812 314.945 15.4342L312.876 14.9371C310.527 14.3693 309.353 13.2809 309.353 11.6719C309.353 10.6152 309.8 9.7673 310.695 9.12818C311.59 8.48905 312.736 8.16966 314.132 8.17003C315.148 8.15709 316.149 8.4107 317.027 8.90355C317.843 9.34333 318.481 10.0354 318.837 10.8675L316.817 11.672C316.585 11.1816 316.191 10.7785 315.696 10.5253C315.164 10.2457 314.566 10.1029 313.959 10.111C313.398 10.1029 312.846 10.2508 312.37 10.5369C311.902 10.8208 311.668 11.1678 311.668 11.578C311.668 12.2405 312.317 12.7138 313.614 12.9978L315.437 13.4474C317.835 14.015 319.034 15.1743 319.034 16.9253Z" fill="#0E2E49"/>
<path d="M18.6368 15.9423L5.60147 8.71346C5.17907 8.47355 4.71134 8.31646 4.22534 8.25129C3.73933 8.18612 3.2447 8.21415 2.77005 8.33377C2.29539 8.45339 1.85014 8.66222 1.46005 8.94818C1.06995 9.23415 0.742755 9.59156 0.497383 9.99977C0.252011 10.408 0.0933334 10.8588 0.0305284 11.3263C-0.0322765 11.7938 0.00203771 12.2686 0.131486 12.7233C0.260935 13.1779 0.482949 13.6034 0.784686 13.9752C1.08642 14.3469 1.4619 14.6574 1.88938 14.8889L14.9247 22.1183C15.3471 22.3582 15.8148 22.5153 16.3008 22.5805C16.7868 22.6456 17.2815 22.6176 17.7561 22.498C18.2308 22.3784 18.676 22.1695 19.0661 21.8836C19.4562 21.5976 19.7834 21.2402 20.0288 20.832C20.2742 20.4238 20.4328 19.9729 20.4957 19.5054C20.5585 19.0379 20.5241 18.5631 20.3947 18.1085C20.2652 17.6538 20.0432 17.2283 19.7415 16.8566C19.4398 16.4849 19.0643 16.1743 18.6368 15.9429V15.9423Z" fill="#0E2E49"/>
<path d="M44.6325 8.71339L31.5973 1.48433C31.1749 1.24442 30.7072 1.08733 30.2212 1.02216C29.7352 0.95699 29.2405 0.985024 28.7659 1.10464C28.2912 1.22426 27.846 1.43309 27.4559 1.71905C27.0658 2.00502 26.7386 2.36243 26.4932 2.77063C26.2479 3.17883 26.0892 3.62971 26.0264 4.09719C25.9636 4.56467 25.9979 5.03947 26.1273 5.49413C26.2568 5.94879 26.4788 6.37429 26.7805 6.746C27.0823 7.11772 27.4577 7.42828 27.8852 7.65973L40.9204 14.8891C41.3428 15.129 41.8106 15.2861 42.2966 15.3513C42.7826 15.4165 43.2772 15.3884 43.7519 15.2688C44.2265 15.1492 44.6718 14.9404 45.0619 14.6544C45.452 14.3684 45.7792 14.011 46.0245 13.6028C46.2699 13.1946 46.4286 12.7437 46.4914 12.2763C46.5542 11.8088 46.5199 11.334 46.3904 10.8793C46.261 10.4247 46.039 9.99916 45.7372 9.62744C45.4355 9.25572 45.06 8.94516 44.6325 8.71371V8.71339Z" fill="#0E2E49"/>
<path d="M40.4045 15.7477L34.3207 12.3737L27.8855 15.9423C27.458 16.1738 27.0825 16.4843 26.7808 16.8561C26.479 17.2278 26.257 17.6533 26.1276 18.1079C25.9981 18.5626 25.9638 19.0374 26.0266 19.5049C26.0894 19.9723 26.2481 20.4232 26.4935 20.8314C26.7389 21.2396 27.066 21.597 27.4561 21.883C27.8462 22.169 28.2915 22.3778 28.7661 22.4974C29.2408 22.617 29.7354 22.6451 30.2214 22.5799C30.7074 22.5147 31.1752 22.3576 31.5976 22.1177L42.0754 16.3069C41.487 16.2225 40.9202 16.0329 40.4045 15.7477Z" fill="#0E2E49"/>
<path d="M6.11852 7.85473L12.2024 11.2287L18.6375 7.65987C19.065 7.42842 19.4405 7.11785 19.7422 6.74612C20.044 6.3744 20.266 5.94889 20.3954 5.49423C20.5249 5.03956 20.5592 4.56474 20.4964 4.09725C20.4336 3.62977 20.2749 3.17888 20.0295 2.77067C19.7842 2.36246 19.457 2.00504 19.0669 1.71907C18.6768 1.4331 18.2315 1.22427 17.7569 1.10465C17.2822 0.985024 16.7876 0.956989 16.3016 1.02216C15.8156 1.08734 15.3479 1.24442 14.9255 1.48434L4.44763 7.29545C5.03615 7.3797 5.60294 7.56942 6.11852 7.85473Z" fill="#0E2E49"/>
</svg>
